<?xml version="1.0" encoding="UTF-8"?>
<svg version="1.1" xmlns="http://www.w3.org/2000/svg" width="278" height="225">
<path d="M0 0 C91.74 0 183.48 0 278 0 C278 74.25 278 148.5 278 225 C186.26 225 94.52 225 0 225 C0 150.75 0 76.5 0 0 Z " fill="#FAF9EA" transform="translate(0,0)"/>
<path d="M0 0 C1.00546875 0.23332031 2.0109375 0.46664063 3.046875 0.70703125 C12.15154918 3.09210738 18.66707539 7.33774171 26 13 C26.66644531 13.48210938 27.33289063 13.96421875 28.01953125 14.4609375 C40.96719422 24.46732809 46.64870187 38.77045655 51 54 C51 68.52 51 83.04 51 98 C5.79 98 -39.42 98 -86 98 C-86 37.99629791 -86 37.99629791 -66.51269531 17.45654297 C-48.90254066 0.50008999 -23.74826164 -6.30130255 0 0 Z " fill="#5AC7C4" transform="translate(156,29)"/>
<path d="M0 0 C3.09900864 1.24490385 4.84728598 3.19641221 7.18261719 5.57446289 C7.64307434 6.03916489 8.10353149 6.50386688 8.57794189 6.98265076 C10.0419203 8.46337483 11.49510259 9.95420183 12.94824219 11.44555664 C13.94103668 12.45340328 14.93451889 13.46057297 15.92871094 14.46704102 C18.35990691 16.93125125 20.78153087 19.40462993 23.19824219 21.88305664 C26.13906141 20.4796042 28.10775996 19.15912901 30.32324219 16.75805664 C31.83105469 15.12524414 31.83105469 15.12524414 33.19824219 13.88305664 C33.85824219 13.88305664 34.51824219 13.88305664 35.19824219 13.88305664 C36.4699707 15.17822266 36.4699707 15.17822266 38.01464844 17.07446289 C41.29531961 20.93352566 44.75906047 24.53246752 48.35058594 28.09790039 C48.89921295 28.64322418 49.44783997 29.18854797 50.01309204 29.75039673 C51.7186975 31.4424272 53.42680188 33.13189476 55.13574219 34.82055664 C57.41852753 37.076831 59.69802159 39.33635738 61.97558594 41.59790039 C62.50047104 42.11448715 63.02535614 42.63107391 63.56614685 43.16331482 C64.79578212 44.38445135 65.99993466 45.63116353 67.19824219 46.88305664 C67.19824219 47.21305664 67.19824219 47.54305664 67.19824219 47.88305664 C22.64824219 47.88305664 -21.90175781 47.88305664 -67.80175781 47.88305664 C-62.23330379 41.38652695 -56.46913056 35.2617634 -50.46044922 29.19165039 C-49.2623837 27.97685853 -48.06973222 26.75670534 -46.88232422 25.53149414 C-45.15641106 23.75112831 -43.4148986 21.98749651 -41.66894531 20.22680664 C-41.13969452 19.67488647 -40.61044373 19.12296631 -40.06515503 18.55432129 C-38.54736328 17.04516602 -38.54736328 17.04516602 -35.80175781 14.88305664 C-31.94511964 14.96185094 -29.60481361 17.3830339 -26.80175781 19.88305664 C-26.30675781 20.87305664 -26.30675781 20.87305664 -25.80175781 21.88305664 C-21.91226147 21.32992285 -20.17505759 19.60176671 -17.48925781 16.82055664 C-16.70550781 16.01102539 -15.92175781 15.20149414 -15.11425781 14.36743164 C-11.16170865 10.12111193 -7.38023149 5.7321258 -3.61425781 1.32055664 C-1.80175781 -0.11694336 -1.80175781 -0.11694336 0 0 Z " fill="#2A9741" transform="translate(138.8017578125,78.116943359375)"/>
<path d="M0 0 C3.7654902 1.8827451 5.64643414 3.41192649 8.546875 6.3515625 C9.39121094 7.20234375 10.23554688 8.053125 11.10546875 8.9296875 C12.41451172 10.26386719 12.41451172 10.26386719 13.75 11.625 C14.63816406 12.5221875 15.52632812 13.419375 16.44140625 14.34375 C18.63216969 16.55807004 20.81812763 18.77692435 23 21 C25.94081922 19.59654756 27.90951777 18.27607236 30.125 15.875 C31.6328125 14.2421875 31.6328125 14.2421875 33 13 C33.66 13 34.32 13 35 13 C36.27172852 14.29516602 36.27172852 14.29516602 37.81640625 16.19140625 C41.09707742 20.05046902 44.56081828 23.64941088 48.15234375 27.21484375 C48.70097076 27.76016754 49.24959778 28.30549133 49.81484985 28.86734009 C51.52045532 30.55937056 53.2285597 32.24883812 54.9375 33.9375 C57.22028535 36.19377436 59.4997794 38.45330074 61.77734375 40.71484375 C62.30222885 41.23143051 62.82711395 41.74801727 63.36790466 42.28025818 C64.59753993 43.50139471 65.80169247 44.74810689 67 46 C67 46.33 67 46.66 67 47 C44.89 47 22.78 47 0 47 C0 31.49 0 15.98 0 0 Z " fill="#3BB83E" transform="translate(139,79)"/>
<path d="M0 0 C2.65234375 1.44140625 2.65234375 1.44140625 5 4 C5.7246327 7.15933775 5.65303393 10.21008786 5.5625 13.4375 C5.57345703 14.28376953 5.58441406 15.13003906 5.59570312 16.00195312 C5.54769131 20.08935937 5.30825458 22.47185265 3.21484375 26.05859375 C0.8928317 28.09393765 0.03382745 28.68425444 -3 28.625 C-3.66 28.63789063 -4.32 28.65078125 -5 28.6640625 C-8.28936906 27.57188918 -9.26542484 25.97193075 -11 23 C-11.59470432 19.79785906 -11.60457154 16.68690788 -11.5625 13.4375 C-11.58634766 12.58736328 -11.61019531 11.73722656 -11.63476562 10.86132812 C-11.62021177 4.67593795 -11.62021177 4.67593795 -8.65234375 1.44140625 C-5.38868033 -0.33221938 -3.66387832 -0.61064639 0 0 Z " fill="#4DBE4D" transform="translate(185,139)"/>
<path d="M0 0 C2.1875 1.40625 2.1875 1.40625 4 4 C4.59524615 7.34253609 4.55805877 10.61323857 4.5 14 C4.51546875 14.90234375 4.5309375 15.8046875 4.546875 16.734375 C4.50827214 23.2582578 4.50827214 23.2582578 2.22265625 26.59375 C-1.49163338 28.94373992 -3.65582639 28.55164109 -8 28 C-11.49020351 24.46270526 -11.41340861 21.47425506 -11.45898438 16.734375 C-11.45189453 15.83203125 -11.44480469 14.9296875 -11.4375 14 C-11.45748047 13.09765625 -11.47746094 12.1953125 -11.49804688 11.265625 C-11.49319605 4.70730491 -11.49319605 4.70730491 -9.19140625 1.40625 C-5.95963671 -0.6676128 -3.75309462 -0.53615637 0 0 Z " fill="#4DBE4E" transform="translate(204,139)"/>
<path d="M0 0 C1.98 0 3.96 0 6 0 C6.66 0.99 7.32 1.98 8 3 C10.6905528 1.77992056 10.6905528 1.77992056 13 0 C14.98 0 16.96 0 19 0 C19 9.24 19 18.48 19 28 C17.35 28 15.7 28 14 28 C14 21.4 14 14.8 14 8 C13.34 8 12.68 8 12 8 C11.34 9.32 10.68 10.64 10 12 C9.34 12 8.68 12 8 12 C7.34 11.01 6.68 10.02 6 9 C5.67 15.27 5.34 21.54 5 28 C3.35 28 1.7 28 0 28 C0 18.76 0 9.52 0 0 Z " fill="#4FBE4F" transform="translate(153,139)"/>
<path d="M0 0 C1.65 0 3.3 0 5 0 C6.65 3.96 8.3 7.92 10 12 C10.33 8.04 10.66 4.08 11 0 C12.32 0 13.64 0 15 0 C15 9.24 15 18.48 15 28 C13.68 27.67 12.36 27.34 11 27 C8.91661733 23.48566239 7.56709161 19.78713807 6 16 C5.67 19.96 5.34 23.92 5 28 C3.35 28 1.7 28 0 28 C0 18.76 0 9.52 0 0 Z " fill="#4BBD4B" transform="translate(211,139)"/>
<path d="M0 0 C3.4375 1.5 3.4375 1.5 6 3 C6 3.66 6 4.32 6 5 C5.05125 5.28875 4.1025 5.5775 3.125 5.875 C-0.05211578 6.76825109 -0.05211578 6.76825109 -2 9 C-2.50042146 11.91538029 -2.50042146 11.91538029 -2 15 C0.26940332 17.91780427 2.61980343 19.55134433 6 21 C2.13318128 24.36672207 -0.60691365 24.50957999 -5.58984375 24.35546875 C-9.8257677 23.73072146 -11.83982213 21.54690383 -14.3125 18.25 C-15.38378392 14.74397989 -15.78314743 11.57062132 -15 8 C-10.99857375 1.59280828 -7.61384056 -0.50758937 0 0 Z " fill="#F4FA31" transform="translate(143,45)"/>
<path d="M0 0 C2.31 0 4.62 0 7 0 C7.67980581 3.16398982 8.34138686 6.33153677 9 9.5 C9.19078125 10.386875 9.3815625 11.27375 9.578125 12.1875 C10.68788915 17.577783 11.2056975 22.49759191 11 28 C9.35 28 7.7 28 6 28 C6 27.01 6 26.02 6 25 C4.02 25 2.04 25 0 25 C0 25.99 0 26.98 0 28 C-1.32 28 -2.64 28 -4 28 C-3.43560284 21.82133631 -2.7463333 15.65898057 -2 9.5 C-1.9170166 8.79359375 -1.8340332 8.0871875 -1.74853516 7.359375 C-1.11640876 2.23281752 -1.11640876 2.23281752 0 0 Z " fill="#4CBD4C" transform="translate(69,139)"/>
<path d="M0 0 C1.8253125 -0.01933594 1.8253125 -0.01933594 3.6875 -0.0390625 C7 0.625 7 0.625 9.453125 2.95703125 C11 5.625 11 5.625 10.75 8.9375 C8.98610287 13.88076726 4.8158967 17.20844132 1 20.625 C-2.30163021 19.20376845 -4.3170382 17.50176578 -6.6875 14.8125 C-7.28949219 14.14605469 -7.89148438 13.47960937 -8.51171875 12.79296875 C-10.26440043 10.23984976 -10.94763455 8.73360354 -11 5.625 C-8.21912034 0.48326938 -5.65980772 -0.05995559 0 0 Z " fill="#FBFCFB" transform="translate(256,12.375)"/>
<path d="M0 0 C4.29 0 8.58 0 13 0 C13 1.65 13 3.3 13 5 C10.03 5 7.06 5 4 5 C4 6.98 4 8.96 4 11 C6.97 11 9.94 11 13 11 C13 12.98 13 14.96 13 17 C10.36 17 7.72 17 5 17 C5 18.98 5 20.96 5 23 C7.64 23 10.28 23 13 23 C13 24.65 13 26.3 13 28 C8.71 28 4.42 28 0 28 C0 18.76 0 9.52 0 0 Z " fill="#4FBE4F" transform="translate(115,139)"/>
<path d="M0 0 C1.65 0 3.3 0 5 0 C6.5912689 4.873261 7.21192221 8.80790596 7 14 C7.66 14 8.32 14 9 14 C9.06058594 13.32453125 9.12117188 12.6490625 9.18359375 11.953125 C9.26738281 11.06109375 9.35117187 10.1690625 9.4375 9.25 C9.51871094 8.36828125 9.59992187 7.4865625 9.68359375 6.578125 C9.96238465 4.30649548 10.38790577 2.20148177 11 0 C12.65 0 14.3 0 16 0 C15.30654365 6.2484067 14.20358931 12.34403221 12.9375 18.5 C12.75123047 19.4178125 12.56496094 20.335625 12.37304688 21.28125 C11.91801873 23.52138854 11.46028733 25.76093726 11 28 C9.02 28 7.04 28 5 28 C3.55510631 25.11021263 3.45595031 22.26538066 3.0625 19.0625 C2.2541837 12.66320051 1.23747769 6.33219968 0 0 Z " fill="#50BF50" transform="translate(49,139)"/>
<path d="M0 0 C0.66 0.66 1.32 1.32 2 2 C4.57510212 1.8542395 7.0466723 1.41933141 9.58984375 0.99609375 C12 1 12 1 13.6484375 2.3984375 C14.09445313 2.92695312 14.54046875 3.45546875 15 4 C17.59915538 5.19027984 17.59915538 5.19027984 20 6 C20 6.99 20 7.98 20 9 C9.77 9 -0.46 9 -11 9 C-9.59956543 1.99782715 -7.419479 -0.96775813 0 0 Z " fill="#EEF5E8" transform="translate(182,74)"/>
<path d="M0 0 C3.40343405 0.18564186 6.03739882 0.37896698 8.9375 2.25 C10 4 10 4 10 9 C0.1 9 -9.8 9 -20 9 C-19.67 7.68 -19.34 6.36 -19 5 C-16.5625 3.875 -16.5625 3.875 -14 3 C-13.34 2.34 -12.68 1.68 -12 1 C-9.05887302 0.80818737 -6.59675273 0.83423535 -3.75 1.625 C-3.1725 1.74875 -2.595 1.8725 -2 2 C-1.34 1.34 -0.68 0.68 0 0 Z " fill="#F0F6E9" transform="translate(96,74)"/>
<path d="M0 0 C1.65 0 3.3 0 5 0 C5.66 1.98 6.32 3.96 7 6 C7.99 4.02 8.98 2.04 10 0 C11.65 0 13.3 0 15 0 C14.52140759 1.60433809 14.04210442 3.20846416 13.5625 4.8125 C13.29566406 5.70582031 13.02882812 6.59914062 12.75390625 7.51953125 C12.19612127 9.35473055 11.60655425 11.18033726 11 13 C10.77281504 15.56634861 10.58391816 18.11678107 10.4375 20.6875 C10.39431641 21.38939453 10.35113281 22.09128906 10.30664062 22.81445312 C10.2008264 24.54275206 10.09993419 26.2713511 10 28 C8.35 28 6.7 28 5 28 C4.97421875 27.11699219 4.9484375 26.23398438 4.921875 25.32421875 C4.57728695 18.03304879 3.67996878 11.94853798 0.83984375 5.20703125 C0 3 0 3 0 0 Z " fill="#4FBE4F" transform="translate(130,139)"/>
<path d="M0 0 C1.65 0 3.3 0 5 0 C5 7.59 5 15.18 5 23 C7.64 23 10.28 23 13 23 C13 24.65 13 26.3 13 28 C8.71 28 4.42 28 0 28 C0 18.76 0 9.52 0 0 Z " fill="#4BBD4B" transform="translate(99,139)"/>
<path d="M0 0 C1.65 0 3.3 0 5 0 C5 7.59 5 15.18 5 23 C7.64 23 10.28 23 13 23 C13 24.65 13 26.3 13 28 C8.71 28 4.42 28 0 28 C0 18.76 0 9.52 0 0 Z " fill="#48BC49" transform="translate(83,139)"/>
<path d="M0 0 C3 0.25 3 0.25 5 2.25 C5.265625 5.4375 5.265625 5.4375 5.25 9.25 C5.25515625 10.508125 5.2603125 11.76625 5.265625 13.0625 C5 16.25 5 16.25 3 18.25 C0 18.5 0 18.5 -3 18.25 C-5 16.25 -5 16.25 -5.265625 13.0625 C-5.26046875 11.804375 -5.2553125 10.54625 -5.25 9.25 C-5.25515625 7.991875 -5.2603125 6.73375 -5.265625 5.4375 C-4.91266073 1.20192875 -4.25812592 0.35484383 0 0 Z " fill="#71CA6E" transform="translate(165,172.75)"/>
<path d="M0 0 C3 0.25 3 0.25 5 2.25 C5.26991906 4.93839385 5.08737357 7.54141936 5 10.25 C2.69 10.25 0.38 10.25 -2 10.25 C-2 12.23 -2 14.21 -2 16.25 C-0.02463255 15.90213292 -0.02463255 15.90213292 2 15.25 C2.33 14.59 2.66 13.93 3 13.25 C3.66 13.25 4.32 13.25 5 13.25 C4.125 17.125 4.125 17.125 3 18.25 C0.0625 18.4375 0.0625 18.4375 -3 18.25 C-5 16.25 -5 16.25 -5.265625 13.0625 C-5.26046875 11.804375 -5.2553125 10.54625 -5.25 9.25 C-5.25515625 7.991875 -5.2603125 6.73375 -5.265625 5.4375 C-4.91266073 1.20192875 -4.25812592 0.35484383 0 0 Z " fill="#7ECF7A" transform="translate(132,172.75)"/>
<path d="M0 0 C1.0725 0.165 2.145 0.33 3.25 0.5 C6.66188834 0.95491845 8.7226792 0.77113431 12 0 C12.33 0.33 12.66 0.66 13 1 C12.82741843 5.48712078 12.43095011 7.50598402 9.4375 10.9375 C8.633125 11.618125 7.82875 12.29875 7 13 C3.19374018 11.50468364 1.22059499 9.41019944 -1 6 C-1.3125 3.25 -1.3125 3.25 -1 1 C-0.67 0.67 -0.34 0.34 0 0 Z " fill="#A0A7AD" transform="translate(250,16)"/>
<path d="M0 0 C5.72576833 1.43144208 8.61469257 4.31944451 12 9 C10.35718838 10.66964521 8.71067239 12.3356464 7.0625 14 C5.68771484 15.3921875 5.68771484 15.3921875 4.28515625 16.8125 C2 19 2 19 1 19 C0.67 12.73 0.34 6.46 0 0 Z " fill="#3BB742" transform="translate(103,93)"/>
<path d="M0 0 C0.66 0 1.32 0 2 0 C2 5.94 2 11.88 2 18 C-1.61322401 16.193388 -2.83748791 15.33581029 -5.25 12.375 C-5.77078125 11.74335937 -6.2915625 11.11171875 -6.828125 10.4609375 C-7.21484375 9.97882813 -7.6015625 9.49671875 -8 9 C-6.85459775 7.68712379 -5.70866567 6.37470979 -4.5625 5.0625 C-3.92441406 4.33160156 -3.28632813 3.60070312 -2.62890625 2.84765625 C-1.77458541 1.87860647 -0.91348825 0.91348825 0 0 Z " fill="#2D9B45" transform="translate(171,93)"/>
<path d="M0 0 C1.65 0 3.3 0 5 0 C5 5.61 5 11.22 5 17 C3.35 17.33 1.7 17.66 0 18 C-1.82116003 16.17883997 -1.1323508 13.69328236 -1.13671875 11.2734375 C-1.13285156 10.52320313 -1.12898437 9.77296875 -1.125 9 C-1.12886719 8.24976563 -1.13273438 7.49953125 -1.13671875 6.7265625 C-1.12661053 1.12661053 -1.12661053 1.12661053 0 0 Z " fill="#EDF4DF" transform="translate(180,144)"/>
<path d="M0 0 C2.08496606 0.01177947 4.16970153 0.11006961 6.25 0.25 C7.95929688 0.35054687 7.95929688 0.35054687 9.703125 0.453125 C13.16457151 1.02729859 15.21757259 1.88702881 18 4 C18 4.66 18 5.32 18 6 C11.07 6 4.14 6 -3 6 C-1 1 -1 1 0 0 Z " fill="#E5F2E6" transform="translate(167,56)"/>
<path d="M0 0 C1.13566406 -0.01675781 2.27132812 -0.03351562 3.44140625 -0.05078125 C6.4375 0.3125 6.4375 0.3125 8.33984375 1.70703125 C9.4375 3.3125 9.4375 3.3125 9.4375 5.3125 C2.5075 5.3125 -4.4225 5.3125 -11.5625 5.3125 C-10.5625 2.3125 -10.5625 2.3125 -8.91015625 1.14453125 C-5.86156743 0.06408297 -3.23061471 0.01102599 0 0 Z " fill="#ECF5E8" transform="translate(104.5625,56.6875)"/>
<path d="M0 0 C3 0.125 3 0.125 4 1.125 C4.04063832 2.79117115 4.042721 4.45888095 4 6.125 C3.34 6.125 2.68 6.125 2 6.125 C2 4.805 2 3.485 2 2.125 C0.68 2.125 -0.64 2.125 -2 2.125 C-0.92292435 5.55205888 0.00810683 7.13254123 2.6875 9.625 C3.450625 10.45 4.21375 11.275 5 12.125 C4.80952381 16.31547619 4.80952381 16.31547619 3 18.125 C0.0625 18.3125 0.0625 18.3125 -3 18.125 C-3.66 17.465 -4.32 16.805 -5 16.125 C-5 14.805 -5 13.485 -5 12.125 C-4.34 12.125 -3.68 12.125 -3 12.125 C-2.67 13.115 -2.34 14.105 -2 15.125 C0.01508358 15.85823796 0.01508358 15.85823796 2 16.125 C0.92292435 12.69794112 -0.00810683 11.11745877 -2.6875 8.625 C-3.450625 7.8 -4.21375 6.975 -5 6.125 C-4.80210604 1.77133287 -4.47051769 0.18627157 0 0 Z " fill="#75CB72" transform="translate(85,172.875)"/>
<path d="M0 0 C1.32 0 2.64 0 4 0 C4 5.28 4 10.56 4 16 C2.35 16.33 0.7 16.66 -1 17 C-1.02684679 14.35409986 -1.04676357 11.70846904 -1.0625 9.0625 C-1.07087891 8.30775391 -1.07925781 7.55300781 -1.08789062 6.77539062 C-1.09652441 4.85005687 -1.05224333 2.92464419 -1 1 C-0.67 0.67 -0.34 0.34 0 0 Z " fill="#FAF9EA" transform="translate(199,145)"/>
<path d="M0 0 C2.9375 0.1875 2.9375 0.1875 3.9375 1.1875 C3.97813832 2.85367115 3.980221 4.52138095 3.9375 6.1875 C3.2775 5.1975 2.6175 4.2075 1.9375 3.1875 C0.6175 2.8575 -0.7025 2.5275 -2.0625 2.1875 C-2.0625 6.8075 -2.0625 11.4275 -2.0625 16.1875 C-0.7425 15.8575 0.5775 15.5275 1.9375 15.1875 C2.2675 14.5275 2.5975 13.8675 2.9375 13.1875 C3.5975 13.1875 4.2575 13.1875 4.9375 13.1875 C4.0625 17.0625 4.0625 17.0625 2.9375 18.1875 C0 18.375 0 18.375 -3.0625 18.1875 C-5.0625 16.1875 -5.0625 16.1875 -5.328125 13 C-5.32296875 11.741875 -5.3178125 10.48375 -5.3125 9.1875 C-5.31765625 7.929375 -5.3228125 6.67125 -5.328125 5.375 C-4.97159522 1.09664268 -4.30975799 0.26386273 0 0 Z " fill="#8DD487" transform="translate(119.0625,172.8125)"/>
<path d="M0 0 C1 1 1 1 1.09765625 4.81640625 C1.09098089 6.39846682 1.07901875 7.98051159 1.0625 9.5625 C1.05798828 10.36880859 1.05347656 11.17511719 1.04882812 12.00585938 C1.03700518 14.00393756 1.01906914 16.00197783 1 18 C0.34 18 -0.32 18 -1 18 C-1 12.72 -1 7.44 -1 2 C-2.32 2.33 -3.64 2.66 -5 3 C-5.33 7.62 -5.66 12.24 -6 17 C-6.66 17 -7.32 17 -8 17 C-8 11.72 -8 6.44 -8 1 C-5.05549278 0.01849759 -3.06481021 -0.1613058 0 0 Z " fill="#66C765" transform="translate(109,173)"/>
<path d="M0 0 C2.5625 0.1875 2.5625 0.1875 4.5625 2.1875 C5.13315791 6.43176819 4.00985107 8.5839058 1.5625 12 C1.005625 12.79019531 0.44875 13.58039063 -0.125 14.39453125 C-0.558125 14.98621094 -0.99125 15.57789063 -1.4375 16.1875 C0.5425 16.1875 2.5225 16.1875 4.5625 16.1875 C4.5625 16.8475 4.5625 17.5075 4.5625 18.1875 C1.5925 18.1875 -1.3775 18.1875 -4.4375 18.1875 C-3.40362432 14.05199729 -1.92393629 11.65568424 0.40625 8.1875 C1.56927545 6.1757803 2.11682852 4.456373 2.5625 2.1875 C1.2425 2.1875 -0.0775 2.1875 -1.4375 2.1875 C-1.4375 3.5075 -1.4375 4.8275 -1.4375 6.1875 C-2.4275 6.1875 -3.4175 6.1875 -4.4375 6.1875 C-3.3735 0.2595 -3.3735 0.2595 0 0 Z " fill="#67C664" transform="translate(151.4375,172.8125)"/>
<path d="M0 0 C2.31 0.33 4.62 0.66 7 1 C7.88229454 6.73491451 5.50103025 9.76938812 2.3125 14.2421875 C1.879375 14.82226562 1.44625 15.40234375 1 16 C2.98 16 4.96 16 7 16 C7 16.66 7 17.32 7 18 C4.03 18 1.06 18 -2 18 C-1.10009693 14.4003877 -0.65620536 13.27656081 1.5 10.5625 C3.60929066 7.74200759 4.67435822 5.58205957 5 2 C3.35 2 1.7 2 0 2 C-0.33 2.99 -0.66 3.98 -1 5 C-0.67 3.35 -0.34 1.7 0 0 Z " fill="#64C562" transform="translate(176,173)"/>
<path d="M0 0 C0 5.28 0 10.56 0 16 C0.99 16 1.98 16 3 16 C3 16.66 3 17.32 3 18 C0.36 18 -2.28 18 -5 18 C-5 17.34 -5 16.68 -5 16 C-4.01 16 -3.02 16 -2 16 C-2 11.71 -2 7.42 -2 3 C-3.32 3.33 -4.64 3.66 -6 4 C-6 3.34 -6 2.68 -6 2 C-2.25 0 -2.25 0 0 0 Z " fill="#68C765" transform="translate(193,173)"/>
<path d="M0 0 C1.32 0 2.64 0 4 0 C4 4.62 4 9.24 4 14 C2.68 14 1.36 14 0 14 C0 9.38 0 4.76 0 0 Z " fill="#F9F9E9" transform="translate(163,175)"/>
<path d="M0 0 C1.4540625 0.0309375 1.4540625 0.0309375 2.9375 0.0625 C4.36838528 2.92427057 3.53741697 4.99625773 2.9375 8.0625 C0.9575 8.0625 -1.0225 8.0625 -3.0625 8.0625 C-3.44313221 5.7364143 -3.77519945 3.40194736 -4.0625 1.0625 C-3.0625 0.0625 -3.0625 0.0625 0 0 Z " fill="#86D181" transform="translate(132.0625,172.9375)"/>
<path d="M0 0 C0.33 0 0.66 0 1 0 C1 4.62 1 9.24 1 14 C2.32 14 3.64 14 5 14 C5 9.71 5 5.42 5 1 C5.33 1 5.66 1 6 1 C6.19390729 3.31197155 6.37996367 5.6246029 6.5625 7.9375 C6.66691406 9.22527344 6.77132812 10.51304687 6.87890625 11.83984375 C6.91886719 12.88269531 6.95882812 13.92554688 7 15 C6 16 6 16 2.9375 16.0625 C1.968125 16.041875 0.99875 16.02125 0 16 C-1.52634923 12.94730154 -0.83794444 10.24154311 -0.5625 6.875 C-0.46066406 5.59367188 -0.35882813 4.31234375 -0.25390625 2.9921875 C-0.12822266 1.51105469 -0.12822266 1.51105469 0 0 Z " fill="#8FD58A" transform="translate(162,175)"/>
<path d="M0 0 C1.32 0.33 2.64 0.66 4 1 C4.08074203 3.62561109 4.1403623 6.24875676 4.1875 8.875 C4.22520508 9.99455078 4.22520508 9.99455078 4.26367188 11.13671875 C4.29296875 13.3046875 4.29296875 13.3046875 4 17 C3.01 17.66 2.02 18.32 1 19 C0.67 12.73 0.34 6.46 0 0 Z " fill="#39B14B" transform="translate(103,93)"/>
<path d="M0 0 C3 0.125 3 0.125 4 1.125 C4.04063832 2.79117115 4.042721 4.45888095 4 6.125 C3.34 5.135 2.68 4.145 2 3.125 C0.68 3.125 -0.64 3.125 -2 3.125 C-2.33 7.085 -2.66 11.045 -3 15.125 C-3.33 15.125 -3.66 15.125 -4 15.125 C-4.02685412 12.81256208 -4.04632841 10.5000373 -4.0625 8.1875 C-4.07410156 6.89972656 -4.08570312 5.61195313 -4.09765625 4.28515625 C-3.97034707 0.16543113 -3.97034707 0.16543113 0 0 Z " fill="#5AC259" transform="translate(119,172.875)"/>
<path d="M0 0 C0.33 0 0.66 0 1 0 C1.98248524 4.0527516 2.08159574 7.83861737 2 12 C0.68 12 -0.64 12 -2 12 C-1.34 8.04 -0.68 4.08 0 0 Z " fill="#CAE8BE" transform="translate(72,148)"/>
<path d="M0 0 C1.32 0.33 2.64 0.66 4 1 C4.33 2.32 4.66 3.64 5 5 C3.35 5.33 1.7 5.66 0 6 C0 4.02 0 2.04 0 0 Z " fill="#EDF4DE" transform="translate(130,183)"/>
<path d="M0 0 C1.99954746 -0.04254356 4.00041636 -0.04080783 6 0 C7 1 7 1 7.0625 3.5625 C7.041875 4.366875 7.02125 5.17125 7 6 C6.34 6 5.68 6 5 6 C5 4.68 5 3.36 5 2 C3.02 2.33 1.04 2.66 -1 3 C-0.67 2.01 -0.34 1.02 0 0 Z " fill="#68C766" transform="translate(82,173)"/>
<path d="M0 0 C1.32 0 2.64 0 4 0 C4 1.65 4 3.3 4 5 C2.68 5 1.36 5 0 5 C0 3.35 0 1.7 0 0 Z " fill="#F7F8E7" transform="translate(130,175)"/>
<path d="M0 0 C1.32 0.66 2.64 1.32 4 2 C3.01 2 2.02 2 1 2 C1 3.32 1 4.64 1 6 C0.01 6 -0.98 6 -2 6 C-1.125 1.125 -1.125 1.125 0 0 Z " fill="#7FCF7B" transform="translate(149,173)"/>
</svg>
